<svg width="18" height="16" viewBox="0 0 18 16" fill="none" xmlns="http://www.w3.org/2000/svg">
<g clip-path="url(#clip0_1_252)">
<path d="M0.253113 4.15722V13.7772C0.253113 14.0917 0.592972 14.3067 0.905476 14.19L5.01055 12.4444V1.77777L0.85136 3.33194C0.674793 3.39791 0.523433 3.51179 0.416801 3.65889C0.310169 3.80599 0.253155 3.97956 0.253113 4.15722ZM5.96203 12.4444L11.671 14.2222V3.55555L5.96203 1.77777V12.4444ZM16.7275 1.80999L12.6224 3.55555V14.2222L16.7816 12.668C16.9582 12.6021 17.1096 12.4882 17.2162 12.3411C17.3229 12.194 17.3799 12.0204 17.3799 11.8428V2.22277C17.3799 1.90833 17.04 1.69333 16.7275 1.80999Z" fill="black"/>
</g>
<defs>
<clipPath id="clip0_1_252">
<rect width="17.1268" height="16" fill="white" transform="translate(0.253113)"/>
</clipPath>
</defs>
</svg>
