<svg width="19" height="20" viewBox="0 0 19 20" fill="none" xmlns="http://www.w3.org/2000/svg">
<path d="M9.26562 11.2954C12.143 11.2954 14.4775 8.96091 14.4775 6.0835C14.4775 3.20609 12.143 0.871582 9.26562 0.871582C6.38821 0.871582 4.05371 3.20609 4.05371 6.0835C4.05371 8.96091 6.38821 11.2954 9.26562 11.2954ZM13.8984 12.4536H11.9042C11.1007 12.8228 10.2067 13.0327 9.26562 13.0327C8.32458 13.0327 7.43422 12.8228 6.62709 12.4536H4.63281C2.07391 12.4536 0 14.5275 0 17.0864V17.6655C0 18.6247 0.778168 19.4028 1.7373 19.4028H16.7939C17.7531 19.4028 18.5312 18.6247 18.5312 17.6655V17.0864C18.5312 14.5275 16.4573 12.4536 13.8984 12.4536Z" fill="white"/>
</svg>
